<svg width="56" height="56" viewBox="0 0 56 56" fill="none" xmlns="http://www.w3.org/2000/svg">
<path d="M51.9303 22.5298L49.6431 9.88005C49.4959 9.06255 49.1183 8.32276 48.5815 7.73026C47.9466 7.02761 47.0873 6.53195 46.1198 6.35682L33.4701 4.0697C32.0607 3.81498 30.6143 4.26742 29.6018 5.28001L5.27814 29.6036C3.57358 31.3081 3.57433 34.0809 5.27814 35.7848L20.2151 50.7218C21.919 52.4257 24.6918 52.4264 26.3964 50.7218L50.7201 26.3982C51.7326 25.3857 52.1851 23.9392 51.9303 22.5298ZM37.9162 18.3955C37.8545 18.3417 37.7942 18.2853 37.7351 18.2262C36.233 16.7241 36.2323 14.279 37.7345 12.7768C39.2373 11.274 41.6824 11.2747 43.1845 12.7768C43.2436 12.8359 43.2999 12.8963 43.3537 12.958C44.6848 14.4695 44.6277 16.7825 43.1839 18.2262C41.7408 19.6695 39.4277 19.7265 37.9162 18.3955Z" fill="url(#paint0_linear_13_2148)"/>
<path d="M51.9303 22.5298L49.6431 9.88005C49.4959 9.06255 49.1183 8.32276 48.5815 7.73026C47.9466 7.02761 47.0873 6.53195 46.1198 6.35682L33.4701 4.0697C32.0607 3.81498 30.6143 4.26742 29.6018 5.28001L5.27814 29.6036C3.57358 31.3081 3.57433 34.0809 5.27814 35.7848L20.2151 50.7218C21.919 52.4257 24.6918 52.4264 26.3964 50.7218L50.7201 26.3982C51.7326 25.3857 52.1851 23.9392 51.9303 22.5298ZM37.9162 18.3955C37.8545 18.3417 37.7942 18.2853 37.7351 18.2262C36.233 16.7241 36.2323 14.279 37.7345 12.7768C39.2373 11.274 41.6824 11.2747 43.1845 12.7768C43.2436 12.8359 43.2999 12.8963 43.3537 12.958C44.6848 14.4695 44.6277 16.7825 43.1839 18.2262C41.7408 19.6695 39.4277 19.7265 37.9162 18.3955Z" fill="url(#paint1_linear_13_2148)"/>
<path d="M21.0047 42.3027C21.0736 42.0698 21.0325 41.8786 20.8816 41.7275L18.3441 39.19L19.8295 37.7046C19.9797 37.5544 20.0363 37.3802 19.9959 37.1837C19.9572 36.987 19.862 36.8129 19.7111 36.6619L19.7065 36.6573C19.544 36.4963 19.3636 36.398 19.1654 36.3625C18.9649 36.3262 18.7931 36.3803 18.6492 36.5242L17.1637 38.0097L15.5017 36.3476L18.0492 33.8C18.1932 33.6561 18.2413 33.4779 18.1916 33.2644C18.143 33.0516 18.0229 32.8496 17.8332 32.6599C17.656 32.4827 17.4624 32.3681 17.2519 32.3154C17.0429 32.2628 16.8618 32.3123 16.7116 32.4624L13.2986 35.8753C13.1151 36.0589 12.9991 36.2569 12.9495 36.4706C12.9007 36.6836 12.9518 36.8661 13.102 37.0163L19.3474 43.2617C19.4983 43.4127 19.6903 43.453 19.9226 43.3848C20.1556 43.3159 20.3763 43.1758 20.586 42.966C20.7956 42.7564 20.9358 42.5358 21.0047 42.3027Z" fill="white"/>
<path d="M25.9465 36.6627L23.5761 34.2924L24.2256 33.6429L28.1883 34.9115C28.4769 35.0036 28.7363 34.9347 28.9654 34.7056C29.1953 34.4757 29.3276 34.173 29.3633 33.7952C29.3996 33.4181 29.3223 33.1349 29.1326 32.9452C29.0605 32.8731 28.9847 32.8298 28.9065 32.8167L25.533 31.8429C25.7173 31.425 25.7931 31.0116 25.7598 30.6036C25.7049 29.9402 25.3604 29.2907 24.7263 28.6567C23.3236 27.254 21.815 27.3586 20.2026 28.9711L18.1667 31.007C18.0289 31.1448 17.9623 31.3041 17.9654 31.4839C17.9685 31.665 18.0328 31.8176 18.1575 31.9421L24.4122 38.1968C24.5631 38.3478 24.7543 38.3889 24.9874 38.3199C25.2204 38.251 25.4411 38.1109 25.6508 37.9011C25.8605 37.6913 26.0007 37.4707 26.0696 37.2377C26.1384 37.0049 26.0975 36.8137 25.9465 36.6627ZM22.3957 33.1119L20.5665 31.2827L21.5402 30.3089C21.8281 30.0211 22.1185 29.8716 22.4103 29.8615C22.7029 29.8522 23.0118 30.0109 23.34 30.3391C23.6675 30.6666 23.8269 30.9761 23.8169 31.2681C23.8068 31.5599 23.6574 31.8501 23.3694 32.1381L22.3957 33.1119Z" fill="white"/>
<path d="M34.9447 28.2143C34.8929 28.0045 34.7776 27.8118 34.6002 27.6345C34.4105 27.4448 34.2085 27.3249 33.9964 27.2753C33.7827 27.2258 33.6048 27.2738 33.4601 27.4185L30.825 30.0535L29.153 28.3815L30.6276 26.9069C30.7785 26.756 30.8343 26.5825 30.7947 26.3852C30.756 26.1886 30.6601 26.0152 30.5091 25.8643L30.5046 25.8597C30.342 25.6987 30.1617 25.6004 29.9642 25.564C29.763 25.5285 29.5912 25.5826 29.4471 25.7266L27.9725 27.2012L26.3105 25.5391L28.9455 22.904C29.0902 22.7593 29.1384 22.5812 29.0887 22.3677C29.0391 22.1556 28.9192 21.9536 28.7295 21.7639C28.5523 21.5867 28.3595 21.4713 28.1489 21.4186C27.9392 21.3668 27.7588 21.4156 27.6079 21.5665L24.1074 25.0669C23.9231 25.2512 23.8071 25.4493 23.7583 25.6623C23.7088 25.876 23.7606 26.0578 23.9108 26.208L30.1562 32.4534C30.3071 32.6044 30.4883 32.6556 30.702 32.6059C30.9149 32.5571 31.1122 32.4403 31.2965 32.256L34.797 28.7556C34.9478 28.6044 34.9973 28.4247 34.9447 28.2143Z" fill="white"/>
<path d="M40.2457 22.9132C40.1931 22.7042 40.0786 22.5107 39.9012 22.3334C39.7115 22.1438 39.5095 22.0237 39.2966 21.975C39.0828 21.9255 38.9049 21.9735 38.761 22.1174L36.1251 24.7532L34.4531 23.0812L35.9285 21.6059C36.0794 21.4549 36.1352 21.2815 36.0948 21.0849C36.0561 20.8883 35.961 20.7141 35.81 20.5632L35.8054 20.5586C35.6429 20.3976 35.4625 20.2993 35.2643 20.2637C35.0639 20.2274 34.892 20.2816 34.7481 20.4255L33.2726 21.901L31.6106 20.2389L34.2464 17.6031C34.3903 17.4591 34.4385 17.281 34.3888 17.0675C34.3401 16.8545 34.22 16.6526 34.0304 16.463C33.8532 16.2858 33.6596 16.1711 33.4498 16.1177C33.24 16.0658 33.0597 16.1146 32.9087 16.2655L29.4075 19.7667C29.224 19.9503 29.1081 20.1483 29.0584 20.3621C29.0096 20.575 29.0607 20.7576 29.2109 20.9078L35.4563 27.1533C35.6072 27.3042 35.7891 27.3545 36.0021 27.3057C36.2158 27.2562 36.4131 27.1394 36.5965 26.9558L40.0977 23.4546C40.2489 23.3034 40.2983 23.1239 40.2457 22.9132Z" fill="white"/>
<defs>
<linearGradient id="paint0_linear_13_2148" x1="2.24" y1="-1.53846" x2="72.6717" y2="7.44724" gradientUnits="userSpaceOnUse">
<stop stop-color="#FFCF54" stop-opacity="0.66"/>
<stop offset="1" stop-color="#FEB700" stop-opacity="0.76"/>
</linearGradient>
<linearGradient id="paint1_linear_13_2148" x1="17.8947" y1="-3.27058" x2="48.9509" y2="60.2796" gradientUnits="userSpaceOnUse">
<stop stop-color="#FFC701"/>
<stop offset="1" stop-color="#FF0000"/>
</linearGradient>
</defs>
</svg>
