<svg width="56" height="56" viewBox="0 0 56 56" fill="none" xmlns="http://www.w3.org/2000/svg">
<path d="M45.5385 11.0092C34 11.0092 29.0649 3.51042 28.9819 3.4353C28.4246 2.9301 27.5753 2.9301 27.0181 3.4353C26.9346 3.51101 22 11 10.4615 11.0092C9.65438 11.0092 9 11.6636 9 12.4707V29.9739C9 44.1532 19.5461 49.8191 27.4787 52.8475C27.6466 52.9116 27.8233 52.9436 28 52.9436C28.1767 52.9436 28.3534 52.9115 28.5213 52.8475C39.644 48.6012 47 41.9776 47 29.9739V12.4707C47 11.6636 46.3456 11.0092 45.5385 11.0092Z" fill="url(#paint0_linear_13_2075)"/>
<path d="M45.5385 11.0092C34 11.0092 29.0649 3.51042 28.9819 3.4353C28.4246 2.9301 27.5753 2.9301 27.0181 3.4353C26.9346 3.51101 22 11 10.4615 11.0092C9.65438 11.0092 9 11.6636 9 12.4707V29.9739C9 44.1532 19.5461 49.8191 27.4787 52.8475C27.6466 52.9116 27.8233 52.9436 28 52.9436C28.1767 52.9436 28.3534 52.9115 28.5213 52.8475C39.644 48.6012 47 41.9776 47 29.9739V12.4707C47 11.6636 46.3456 11.0092 45.5385 11.0092Z" fill="url(#paint1_linear_13_2075)"/>
<path d="M37 22L26 34L21 28.5455" stroke="white" stroke-width="3" stroke-linecap="round" stroke-linejoin="round"/>
<defs>
<linearGradient id="paint0_linear_13_2075" x1="7.60667" y1="-2.69982" x2="63.7425" y2="2.75549" gradientUnits="userSpaceOnUse">
<stop stop-color="#FFCF54" stop-opacity="0.66"/>
<stop offset="1" stop-color="#FEB700" stop-opacity="0.76"/>
</linearGradient>
<linearGradient id="paint1_linear_13_2075" x1="20" y1="-4.50003" x2="57.1874" y2="53.4642" gradientUnits="userSpaceOnUse">
<stop stop-color="#FFC701"/>
<stop offset="1" stop-color="#FF0000"/>
</linearGradient>
</defs>
</svg>
