<svg width="56" height="56" viewBox="0 0 56 56" fill="none" xmlns="http://www.w3.org/2000/svg">
<path d="M28 9.95312C18.049 9.95312 9.95312 18.049 9.95312 28C9.95312 37.951 18.049 46.0469 28 46.0469C37.951 46.0469 46.0469 37.951 46.0469 28C46.0469 18.049 37.951 9.95312 28 9.95312ZM42.5998 26.3594H36.1695C35.9879 21.8903 35.0649 17.4459 33.4626 14.3096C38.4105 16.2913 41.9827 20.8742 42.5998 26.3594ZM13.4002 29.6406H19.8305C20.0121 34.1097 20.9351 38.5541 22.5374 41.6904C17.5895 39.7087 14.0173 35.1259 13.4002 29.6406ZM19.8306 26.3594H13.4003C14.0173 20.8742 17.5896 16.2913 22.5375 14.3096C20.9353 17.4459 20.0121 21.8903 19.8306 26.3594ZM28 42.7656C26.1203 42.7656 23.4767 37.6828 23.1439 29.6406H32.8562C32.5233 37.6828 29.8797 42.7656 28 42.7656ZM23.1439 26.3594C23.4767 18.3173 26.1203 13.2344 28 13.2344C29.8797 13.2344 32.5233 18.3173 32.8561 26.3594H23.1439ZM33.4626 41.6904C35.0648 38.5541 35.9879 34.1097 36.1695 29.6406H42.5998C41.9827 35.1259 38.4105 39.7087 33.4626 41.6904Z" fill="url(#paint0_linear_13_2124)"/>
<path d="M28 9.95312C18.049 9.95312 9.95312 18.049 9.95312 28C9.95312 37.951 18.049 46.0469 28 46.0469C37.951 46.0469 46.0469 37.951 46.0469 28C46.0469 18.049 37.951 9.95312 28 9.95312ZM42.5998 26.3594H36.1695C35.9879 21.8903 35.0649 17.4459 33.4626 14.3096C38.4105 16.2913 41.9827 20.8742 42.5998 26.3594ZM13.4002 29.6406H19.8305C20.0121 34.1097 20.9351 38.5541 22.5374 41.6904C17.5895 39.7087 14.0173 35.1259 13.4002 29.6406ZM19.8306 26.3594H13.4003C14.0173 20.8742 17.5896 16.2913 22.5375 14.3096C20.9353 17.4459 20.0121 21.8903 19.8306 26.3594ZM28 42.7656C26.1203 42.7656 23.4767 37.6828 23.1439 29.6406H32.8562C32.5233 37.6828 29.8797 42.7656 28 42.7656ZM23.1439 26.3594C23.4767 18.3173 26.1203 13.2344 28 13.2344C29.8797 13.2344 32.5233 18.3173 32.8561 26.3594H23.1439ZM33.4626 41.6904C35.0648 38.5541 35.9879 34.1097 36.1695 29.6406H42.5998C41.9827 35.1259 38.4105 39.7087 33.4626 41.6904Z" fill="url(#paint1_linear_13_2124)"/>
<path d="M52.6274 19.8722C51.9866 19.2346 50.9483 19.2314 50.3075 19.8754C49.6682 20.5162 49.6682 21.5561 50.3106 22.1954C51.8632 23.7447 52.7188 25.8066 52.7188 28C52.7188 30.1934 51.8632 32.2553 50.3106 33.8046C49.6682 34.4439 49.6682 35.4838 50.3075 36.1246C50.9416 36.7619 51.9798 36.7722 52.6274 36.1278C54.8016 33.9585 56 31.073 56 28C56 24.927 54.8016 22.0416 52.6274 19.8722ZM5.69253 19.8754C5.0517 19.2313 4.01341 19.2346 3.37258 19.8722C1.19842 22.0416 0 24.927 0 28C0 31.073 1.19842 33.9585 3.37258 36.1279C4.02008 36.7721 5.05827 36.7621 5.69253 36.1247C6.33183 35.4839 6.33183 34.444 5.68936 33.8047C4.13678 32.2553 3.28125 30.1934 3.28125 28C3.28125 25.8066 4.13678 23.7447 5.68936 22.1954C6.33183 21.5561 6.33183 20.5162 5.69253 19.8754Z" fill="url(#paint2_linear_13_2124)"/>
<path d="M52.6274 19.8722C51.9866 19.2346 50.9483 19.2314 50.3075 19.8754C49.6682 20.5162 49.6682 21.5561 50.3106 22.1954C51.8632 23.7447 52.7188 25.8066 52.7188 28C52.7188 30.1934 51.8632 32.2553 50.3106 33.8046C49.6682 34.4439 49.6682 35.4838 50.3075 36.1246C50.9416 36.7619 51.9798 36.7722 52.6274 36.1278C54.8016 33.9585 56 31.073 56 28C56 24.927 54.8016 22.0416 52.6274 19.8722ZM5.69253 19.8754C5.0517 19.2313 4.01341 19.2346 3.37258 19.8722C1.19842 22.0416 0 24.927 0 28C0 31.073 1.19842 33.9585 3.37258 36.1279C4.02008 36.7721 5.05827 36.7621 5.69253 36.1247C6.33183 35.4839 6.33183 34.444 5.68936 33.8047C4.13678 32.2553 3.28125 30.1934 3.28125 28C3.28125 25.8066 4.13678 23.7447 5.68936 22.1954C6.33183 21.5561 6.33183 20.5162 5.69253 19.8754Z" fill="url(#paint3_linear_13_2124)"/>
<defs>
<linearGradient id="paint0_linear_13_2124" x1="8.62969" y1="5.78846" x2="61.591" y2="12.5453" gradientUnits="userSpaceOnUse">
<stop stop-color="#FFCF54" stop-opacity="0.66"/>
<stop offset="1" stop-color="#FEB700" stop-opacity="0.76"/>
</linearGradient>
<linearGradient id="paint1_linear_13_2124" x1="20.4013" y1="4.48599" x2="43.7541" y2="52.2727" gradientUnits="userSpaceOnUse">
<stop stop-color="#FFC701"/>
<stop offset="1" stop-color="#FF0000"/>
</linearGradient>
<linearGradient id="paint2_linear_13_2124" x1="28" y1="44.4062" x2="28" y2="11.5938" gradientUnits="userSpaceOnUse">
<stop stop-color="#FFE0B0"/>
<stop offset="0.9973" stop-color="#F0FFF4"/>
</linearGradient>
<linearGradient id="paint3_linear_13_2124" x1="16.2105" y1="6.62363" x2="30.4528" y2="56.3627" gradientUnits="userSpaceOnUse">
<stop stop-color="#FFC701"/>
<stop offset="1" stop-color="#FF0000"/>
</linearGradient>
</defs>
</svg>
