<svg width="56" height="56" viewBox="0 0 56 56" fill="none" xmlns="http://www.w3.org/2000/svg">
<path d="M51.0288 4.00415C41.7616 3.83781 31.1916 8.68552 24.5 16.2096C18.1052 16.3314 11.8795 18.9543 7.29481 23.5435C7.02774 23.8079 6.93278 24.2 7.04851 24.5565C7.16721 24.9129 7.47582 25.1743 7.84972 25.2278L15.4731 26.3209L14.5324 27.3754C14.1822 27.7675 14.2 28.3645 14.571 28.7358L27.2864 41.4641C27.4793 41.6571 27.7315 41.7552 27.9867 41.7552C28.2211 41.7552 28.4585 41.672 28.6455 41.5027L29.6989 40.5611L30.7909 48.1921C30.8444 48.5634 31.1381 48.8366 31.4913 48.9554C31.5832 48.9851 31.6782 49 31.7732 49C32.0521 49 32.3399 48.8782 32.5388 48.6822C37.0611 44.1582 39.6784 37.9263 39.8001 31.525C47.3255 24.8149 52.2069 14.2372 51.9933 4.96953C51.9844 4.44377 51.557 4.019 51.0288 4.00415ZM41.9129 21.0989C40.9485 22.0643 39.6814 22.5455 38.4173 22.5455C37.1502 22.5455 35.8831 22.0643 34.9186 21.0989C32.9928 19.1681 32.9928 16.0284 34.9186 14.0976C36.8475 12.1669 39.9841 12.1669 41.9129 14.0976C43.8417 16.0284 43.8417 19.1681 41.9129 21.0989Z" fill="url(#paint0_linear_13_1980)"/>
<path d="M9.44719 37.8078C7.30543 39.9467 4.36876 49.6181 4.0418 50.7131C3.93681 51.067 4.0328 51.448 4.29377 51.706C4.48275 51.898 4.73772 52 4.99869 52C5.09468 52 5.19067 51.985 5.28666 51.958C6.38153 51.631 16.0494 48.6912 18.1912 46.5493C20.6029 44.1374 20.6029 40.2166 18.1912 37.8078C15.7795 35.3959 11.8589 35.3989 9.44719 37.8078Z" fill="url(#paint1_linear_13_1980)"/>
<defs>
<linearGradient id="paint0_linear_13_1980" x1="38.7647" y1="4" x2="9.20362" y2="50.9945" gradientUnits="userSpaceOnUse">
<stop stop-color="#FFC701"/>
<stop offset="1" stop-color="#FF0000"/>
</linearGradient>
<linearGradient id="paint1_linear_13_1980" x1="15.2941" y1="36" x2="4.78351" y2="52.7092" gradientUnits="userSpaceOnUse">
<stop stop-color="#FFC701"/>
<stop offset="1" stop-color="#FF0000"/>
</linearGradient>
</defs>
</svg>
