<svg width="56" height="56" viewBox="0 0 56 56" fill="none" xmlns="http://www.w3.org/2000/svg">
<path d="M32.2188 52H23.7812V47.2083C21.5208 46.7111 19.351 45.8102 17.4037 44.5619L14.0776 47.8866L8.11197 41.921L11.4381 38.5963C10.1912 36.6476 9.29031 34.4778 8.79316 32.2188H4V23.7812H8.79316C9.29031 21.5222 10.1912 19.3524 11.4381 17.4037L8.11197 14.079L14.0776 8.11337L17.4037 11.4381C19.351 10.1897 21.5208 9.28891 23.7812 8.79175V4H32.2188V8.79175C34.4792 9.28891 36.649 10.1897 38.5963 11.4381L41.9224 8.11337L47.888 14.079L44.5619 17.4037C45.8088 19.3524 46.7097 21.5222 47.2068 23.7812H52V32.2188H47.2068C46.7097 34.4778 45.8088 36.6476 44.5619 38.5963L47.888 41.921L41.9224 47.8866L38.5963 44.5619C36.649 45.8102 34.4792 46.7111 32.2188 47.2083V52Z" fill="url(#paint0_linear_13_2228)"/>
<path d="M28 41C20.8303 41 15 35.1681 15 28C15 20.8319 20.8303 15 28 15C35.1697 15 41 20.8319 41 28C41 35.1681 35.1697 41 28 41Z" fill="white"/>
<path d="M35 23L25.375 33L21 28.4545" stroke="url(#paint1_linear_13_2228)" stroke-width="3" stroke-linecap="round" stroke-linejoin="round"/>
<defs>
<linearGradient id="paint0_linear_13_2228" x1="17.8947" y1="-3.27058" x2="48.9509" y2="60.2796" gradientUnits="userSpaceOnUse">
<stop stop-color="#FFC701"/>
<stop offset="1" stop-color="#FF0000"/>
</linearGradient>
<linearGradient id="paint1_linear_13_2228" x1="30.8824" y1="23" x2="25.4335" y2="35.1272" gradientUnits="userSpaceOnUse">
<stop stop-color="#FFB801"/>
<stop offset="1" stop-color="#FF6B00"/>
</linearGradient>
</defs>
</svg>
