<svg width="56" height="56" viewBox="0 0 56 56" fill="none" xmlns="http://www.w3.org/2000/svg">
<path d="M16.75 15.3438C21.6403 15.3438 25.1793 18.2017 28 21.3376C30.8207 18.2017 34.3597 15.3438 39.25 15.3438C46.2303 15.3438 52 21.0087 52 28C52 34.9811 46.2413 40.6562 39.25 40.6562C34.3597 40.6562 30.8207 37.7983 28 34.6624C25.1793 37.7983 21.6403 40.6562 16.75 40.6562C9.76975 40.6562 4 34.9913 4 28C4 21.0189 9.75869 15.3438 16.75 15.3438ZM39.25 32.2188C41.5877 32.2188 43.5625 30.2868 43.5625 28C43.5625 25.7132 41.5877 23.7812 39.25 23.7812C37.3804 23.7812 35.5274 25.435 33.3891 28C35.5274 30.565 37.3804 32.2188 39.25 32.2188ZM16.75 32.2188C18.6196 32.2188 20.4726 30.565 22.6109 28C20.4726 25.435 18.6196 23.7812 16.75 23.7812C14.4123 23.7812 12.4375 25.7132 12.4375 28C12.4375 30.2868 14.4123 32.2188 16.75 32.2188Z" fill="url(#paint0_linear_13_2055)"/>
<path d="M27.9998 4C28.7764 4 29.4061 4.62962 29.4061 5.40625V8.3125C29.4061 9.08913 28.7764 9.71875 27.9998 9.71875C27.2232 9.71875 26.5936 9.08913 26.5936 8.3125V5.40625C26.5936 4.62962 27.2232 4 27.9998 4ZM27.9998 46.2812C28.7764 46.2812 29.4061 46.9109 29.4061 47.6875V50.5938C29.4061 51.3704 28.7764 52 27.9998 52C27.2232 52 26.5936 51.3704 26.5936 50.5938V47.6875C26.5936 46.9109 27.2232 46.2812 27.9998 46.2812ZM38.032 7.81131C38.4203 7.13875 39.2804 6.90813 39.9529 7.29663C40.6255 7.68494 40.8559 8.545 40.4676 9.21756L39.0614 11.6533C38.6705 12.3302 37.8086 12.5538 37.1404 12.168C36.4679 11.7797 36.2374 10.9196 36.6257 10.247L38.032 7.81131ZM16.9382 44.3467C17.3266 43.6742 18.1866 43.4436 18.8592 43.832C19.5317 44.2203 19.7622 45.0804 19.3739 45.753L17.9676 48.1887C17.5768 48.8657 16.7148 49.0892 16.0467 48.7034C15.3741 48.3151 15.1437 47.455 15.532 46.7824L16.9382 44.3467ZM18.8592 12.168C18.1886 12.5553 17.3277 12.3279 16.9382 11.6533L15.532 9.21756C15.1437 8.545 15.3741 7.68494 16.0467 7.29663C16.7192 6.90813 17.5794 7.13866 17.9676 7.81131L19.3739 10.247C19.7622 10.9196 19.5317 11.7797 18.8592 12.168ZM37.1404 43.832C37.8132 43.4434 38.6731 43.6741 39.0614 44.3467L40.4676 46.7824C40.8559 47.455 40.6255 48.3151 39.9529 48.7034C39.2823 49.0907 38.4214 48.8633 38.032 48.1887L36.6257 45.753C36.2374 45.0804 36.4679 44.2203 37.1404 43.832Z" fill="url(#paint1_linear_13_2055)"/>
<defs>
<linearGradient id="paint0_linear_13_2055" x1="58.2049" y1="21.9661" x2="5.99662" y2="96.3801" gradientUnits="userSpaceOnUse">
<stop stop-color="#FFC701"/>
<stop offset="1" stop-color="#FF0000"/>
</linearGradient>
<linearGradient id="paint1_linear_13_2055" x1="43.9284" y1="16.5579" x2="-28.2039" y2="45.1496" gradientUnits="userSpaceOnUse">
<stop stop-color="#FFC701"/>
<stop offset="1" stop-color="#FF0000"/>
</linearGradient>
</defs>
</svg>
