<svg width="50" height="50" viewBox="0 0 50 50" fill="none" xmlns="http://www.w3.org/2000/svg">
<g clip-path="url(#clip0_221_602)">
<path d="M7.14286 0C3.20312 0 0 3.20312 0 7.14286V42.8571C0 46.7969 3.20312 50 7.14286 50H42.8571C46.7969 50 50 46.7969 50 42.8571V7.14286C50 3.20312 46.7969 0 42.8571 0H7.14286ZM32.8348 23.6942C35.0112 24.7321 36.596 26.317 37.433 28.2589C38.5937 30.971 38.7054 35.3906 35.1786 38.9062C32.4777 41.596 29.2076 42.8125 24.5647 42.846H24.5424C19.3192 42.8125 15.3013 41.0491 12.6116 37.6228C10.2121 34.5759 8.97321 30.3237 8.92857 25V24.9777C8.97321 19.654 10.2121 15.4129 12.6116 12.3549C15.3125 8.92857 19.3304 7.16518 24.5424 7.1317H24.5647C29.7991 7.16518 33.8616 8.91741 36.6406 12.3326C38.0134 14.0179 39.0179 16.0491 39.654 18.404L36.6518 19.2076C36.1272 17.2879 35.3237 15.6473 34.2634 14.3415C32.0982 11.6741 28.8281 10.3125 24.5536 10.279C20.3125 10.3125 17.0982 11.6741 15.0112 14.3192C13.058 16.808 12.0424 20.3906 12.0089 24.9777C12.0424 29.5647 13.058 33.1585 15.0112 35.6362C17.0982 38.2924 20.3013 39.654 24.5536 39.6763C28.3817 39.6429 30.904 38.7388 33.0134 36.6295C35.4129 34.2299 35.3683 31.2835 34.5982 29.4866C34.1518 28.4375 33.3259 27.5558 32.221 26.8862C31.9531 28.8951 31.3393 30.4799 30.3795 31.7076C29.1071 33.3259 27.2879 34.2076 24.9777 34.3304C23.2254 34.4308 21.5402 34.0067 20.2232 33.1362C18.6719 32.1094 17.7679 30.5469 17.6674 28.7277C17.4777 25.1339 20.3237 22.5558 24.7545 22.2991C26.3281 22.2098 27.8013 22.2768 29.1629 22.5112C28.9844 21.4062 28.6161 20.5357 28.0692 19.8996C27.3214 19.029 26.1607 18.5826 24.6317 18.5714H24.5871C23.3594 18.5714 21.6853 18.9174 20.6138 20.5357L18.0469 18.7723C19.4754 16.6071 21.7969 15.4129 24.5759 15.4129H24.6429C29.308 15.4464 32.0759 18.3482 32.3549 23.4263C32.5112 23.4933 32.6674 23.5603 32.8237 23.6384L32.8348 23.6942ZM24.8214 31.2277C26.7188 31.1272 28.8839 30.3795 29.2522 25.7812C28.2701 25.5692 27.1763 25.4576 26.0156 25.4576C25.6585 25.4576 25.3013 25.4687 24.9442 25.4911C21.7522 25.6696 20.692 27.221 20.7701 28.6049C20.8705 30.4688 22.8906 31.3393 24.8326 31.2388L24.8214 31.2277Z" fill="black"/>
</g>
<defs>
<clipPath id="clip0_221_602">
<rect width="50" height="50" rx="8" fill="white"/>
</clipPath>
</defs>
</svg>
