<svg width="50" height="50" viewBox="0 0 50 50" fill="none" xmlns="http://www.w3.org/2000/svg">
<rect width="50" height="50" rx="8" fill="black"/>
<path d="M32.6881 19.9277C35.0148 21.5901 37.8652 22.5682 40.9437 22.5682V16.6474C40.361 16.6475 39.78 16.5868 39.2099 16.466V21.1265C36.1317 21.1265 33.2817 20.1486 30.9545 18.4863V30.569C30.9545 36.6135 26.0519 41.513 20.0049 41.513C17.7485 41.513 15.6513 40.8313 13.9092 39.6619C15.8976 41.694 18.6705 42.9545 21.7381 42.9545C27.7857 42.9545 32.6884 38.055 32.6884 32.0103V19.9277H32.6881ZM34.827 13.9544C33.6378 12.656 32.857 10.978 32.6881 9.12294V8.36145H31.0452C31.4587 10.7192 32.8695 12.7335 34.827 13.9544ZM17.734 35.0237C17.0696 34.1532 16.7105 33.088 16.7121 31.993C16.7121 29.2285 18.9545 26.987 21.721 26.987C22.2365 26.9868 22.749 27.0659 23.2404 27.2216V21.1684C22.6661 21.0898 22.0867 21.0563 21.5074 21.0686V25.7801C21.0158 25.6242 20.503 25.5452 19.9873 25.5456C17.2209 25.5456 14.9786 27.7869 14.9786 30.5517C14.9786 32.5067 16.0994 34.1992 17.734 35.0237Z" fill="#FF004F"/>
<path d="M30.9546 18.4862C33.2819 20.1484 36.1317 21.1264 39.2101 21.1264V16.4659C37.4917 16.1001 35.9706 15.2027 34.827 13.9544C32.8694 12.7333 31.4589 10.719 31.0453 8.36145H26.7298V32.01C26.72 34.767 24.4815 36.9993 21.7209 36.9993C20.0943 36.9993 18.649 36.2243 17.7338 35.0236C16.0995 34.1992 14.9786 32.5066 14.9786 30.5518C14.9786 27.7873 17.2208 25.5458 19.9873 25.5458C20.5173 25.5458 21.0282 25.6282 21.5074 25.7802V21.0688C15.5664 21.1915 10.7886 26.0432 10.7886 32.0102C10.7886 34.9889 11.9783 37.6891 13.9094 39.6622C15.6515 40.8313 17.7486 41.5133 20.0051 41.5133C26.0523 41.5133 30.9547 36.6134 30.9547 30.569L30.9546 18.4862Z" fill="white"/>
<path d="M39.21 16.4658V15.2059C37.6605 15.2082 36.1416 14.7745 34.8269 13.9543C35.9907 15.2277 37.523 16.1058 39.21 16.466M31.0451 8.36131C31.0057 8.13604 30.9755 7.90926 30.9545 7.68154V6.92004H24.9958V30.5689C24.9863 33.3256 22.7478 35.5579 19.9871 35.5579C19.2045 35.559 18.4326 35.3761 17.7337 35.0238C18.6489 36.2243 20.0941 36.9991 21.7208 36.9991C24.4812 36.9991 26.72 34.7671 26.7297 32.0101V8.36143L31.0451 8.36131ZM21.5076 21.0686V19.7271C21.0097 19.6591 20.5077 19.625 20.0052 19.6252C13.9574 19.6252 9.05493 24.525 9.05493 30.5689C9.05493 34.3581 10.9816 37.6976 13.9095 39.6619C11.9784 37.689 10.7887 34.9886 10.7887 32.01C10.7887 26.0432 15.5664 21.1913 21.5076 21.0686Z" fill="#00F2EA"/>
</svg>
