<svg width="50" height="50" viewBox="0 0 50 50" fill="none" xmlns="http://www.w3.org/2000/svg">
<g clip-path="url(#clip0_221_292)">
<rect width="50" height="50" rx="8" fill="#FF0000"/>
<path d="M25 0C11.2 0 0 11.2 0 25C0 38.8 11.2 50 25 50C38.8 50 50 38.8 50 25C50 11.2 38.8 0 25 0ZM25 39.8C16.825 39.8 10.2 33.175 10.2 25C10.2 16.825 16.825 10.2 25 10.2C33.175 10.2 39.8 16.825 39.8 25C39.8 33.175 33.175 39.8 25 39.8ZM25 12.025C17.85 12.025 12.025 17.85 12.025 25C12.025 32.15 17.85 37.975 25 37.975C32.15 37.975 37.975 32.15 37.975 25C37.975 17.85 32.15 12.025 25 12.025ZM20.175 32.375V17.625L32.95 25L20.175 32.375Z" fill="#FF0000"/>
<path d="M20.175 32.375V17.625L32.95 25L20.175 32.375Z" fill="white"/>
<circle cx="25" cy="25" r="17.25" stroke="white" stroke-width="2.5"/>
</g>
<defs>
<clipPath id="clip0_221_292">
<rect width="50" height="50" rx="8" fill="white"/>
</clipPath>
</defs>
</svg>
