<svg width="50" height="50" viewBox="0 0 50 50" fill="none" xmlns="http://www.w3.org/2000/svg">
<rect width="50" height="50" rx="8" fill="#FF0000"/>
<g clip-path="url(#clip0_221_420)">
<path fill-rule="evenodd" clip-rule="evenodd" d="M39.5 17.125V38.5C39.5 39.6935 39.0259 40.8381 38.182 41.682C37.3381 42.5259 36.1935 43 35 43V40.75C35.5967 40.75 36.169 40.5129 36.591 40.091C37.0129 39.669 37.25 39.0967 37.25 38.5V17.125H32.75C31.8549 17.125 30.9964 16.7694 30.3635 16.1365C29.7306 15.5036 29.375 14.6451 29.375 13.75V9.25H17C16.4033 9.25 15.831 9.48705 15.409 9.90901C14.9871 10.331 14.75 10.9033 14.75 11.5V31.75H12.5V11.5C12.5 10.3065 12.9741 9.16193 13.818 8.31802C14.6619 7.47411 15.8065 7 17 7H29.375L39.5 17.125ZM28.4502 38.8825H27.4535V37.5122H28.403C28.6541 37.5161 28.9026 37.4597 29.1275 37.348C29.33 37.2453 29.5011 37.0899 29.6225 36.898C29.7422 36.7069 29.8018 36.4843 29.7935 36.259C29.7988 36.0916 29.766 35.9251 29.6973 35.7723C29.6287 35.6194 29.5262 35.4843 29.3975 35.377C29.1192 35.1453 28.7649 35.025 28.403 35.0395C28.2099 35.0352 28.0177 35.0665 27.836 35.1318C27.6768 35.1879 27.5295 35.2733 27.4018 35.3837C27.2852 35.4807 27.1894 35.6003 27.1202 35.7352C27.0509 35.8702 27.0097 36.0177 26.999 36.169H25.3475C25.361 35.8165 25.4375 35.4888 25.577 35.1858C25.718 34.8828 25.9205 34.6187 26.1845 34.3938C26.4485 34.1658 26.7695 33.988 27.1475 33.8605C27.53 33.733 27.9673 33.667 28.4593 33.6625C29.0863 33.658 29.6285 33.757 30.086 33.9595C30.542 34.162 30.896 34.441 31.148 34.7965C31.4048 35.1484 31.5413 35.5737 31.5373 36.0092C31.5582 36.3868 31.4641 36.7619 31.2673 37.0848C31.1144 37.3354 30.9121 37.5523 30.6726 37.7221C30.4332 37.8919 30.1616 38.0111 29.8745 38.0725V38.1647C30.1984 38.2008 30.5107 38.3068 30.7896 38.4754C31.0685 38.644 31.3075 38.8712 31.49 39.1413C31.7156 39.4896 31.8287 39.8988 31.814 40.3135C31.8185 40.741 31.7307 41.1213 31.5508 41.4543C31.3727 41.7909 31.1194 42.082 30.8105 42.3047C30.4955 42.5327 30.131 42.7083 29.717 42.8312C29.3075 42.9513 28.8703 43.0112 28.4053 43.0112C27.7288 43.0112 27.1512 42.8965 26.6727 42.667C26.2311 42.4638 25.8525 42.145 25.577 41.7445C25.3305 41.3666 25.1921 40.9286 25.1765 40.4777H26.81C26.8275 40.6913 26.9108 40.8941 27.0485 41.0583C27.2032 41.2323 27.3945 41.3698 27.6087 41.461C27.8651 41.5599 28.1373 41.611 28.412 41.6118C28.7091 41.6188 29.004 41.5605 29.276 41.4408C29.5072 41.3347 29.7038 41.1654 29.843 40.9525C29.9798 40.7387 30.0488 40.4885 30.041 40.2347C30.0452 39.9867 29.9762 39.743 29.8425 39.5341C29.7088 39.3251 29.5165 39.1603 29.2895 39.0602C29.0288 38.9346 28.7417 38.8736 28.4525 38.8825H28.4502ZM9.5885 42.8312V36.8463H9.674L11.816 41.7062H12.977L15.1055 36.8463H15.191V42.8312H16.7998V33.8335H14.9998L12.4348 39.6745H12.3763L9.81125 33.8335H8V42.8335L9.5885 42.8312ZM21.869 33.8335H18.269V42.8335H20.051V39.814H21.8577C22.5027 39.814 23.0517 39.6842 23.5047 39.4248C23.9607 39.1593 24.308 38.803 24.5465 38.356C24.7935 37.8868 24.9181 37.3629 24.9088 36.8328C24.9088 36.2717 24.7902 35.764 24.5532 35.3095C24.3158 34.8617 23.9571 34.4898 23.5182 34.2362C23.0157 33.9536 22.4452 33.8143 21.869 33.8335ZM23.0953 36.8328C23.1033 37.1299 23.0376 37.4244 22.904 37.69C22.7848 37.9197 22.5989 38.1079 22.3708 38.23C22.1086 38.3591 21.8191 38.4224 21.527 38.4145H20.042V35.251H21.527C22.019 35.251 22.4038 35.3875 22.6813 35.6605C22.9573 35.932 23.0953 36.3228 23.0953 36.8328Z" fill="white"/>
</g>
<defs>
<clipPath id="clip0_221_420">
<rect width="36" height="36" fill="white" transform="translate(8 7)"/>
</clipPath>
</defs>
</svg>
