<svg width="50" height="50" viewBox="0 0 50 50" fill="none" xmlns="http://www.w3.org/2000/svg">
<rect width="50" height="50" rx="8" fill="#FF0000"/>
<path fill-rule="evenodd" clip-rule="evenodd" d="M39.5 17.125V38.5C39.5 39.6935 39.0259 40.8381 38.182 41.682C37.3381 42.5259 36.1935 43 35 43V40.75C35.5967 40.75 36.169 40.5129 36.591 40.091C37.0129 39.669 37.25 39.0967 37.25 38.5V17.125H32.75C31.8549 17.125 30.9964 16.7694 30.3635 16.1365C29.7306 15.5036 29.375 14.6451 29.375 13.75V9.25H17C16.4033 9.25 15.831 9.48705 15.409 9.90901C14.9871 10.331 14.75 10.9033 14.75 11.5V31.75H12.5V11.5C12.5 10.3065 12.9741 9.16193 13.818 8.31802C14.6619 7.47411 15.8065 7 17 7H29.375L39.5 17.125ZM9.5885 42.6603V36.6753H9.674L11.816 41.5353H12.977L15.1055 36.6753H15.191V42.6603H16.7998V33.6625H14.9998L12.4348 39.5035H12.3763L9.81125 33.6625H8V42.6603H9.5885ZM21.464 33.6625H17.864V42.6603H19.646V39.6408H21.4528C22.0977 39.6408 22.6467 39.511 23.0997 39.2515C23.5557 38.989 23.903 38.6335 24.1415 38.185C24.3885 37.7158 24.5131 37.1919 24.5037 36.6617C24.5037 36.0992 24.3853 35.5915 24.1483 35.1385C23.9108 34.6907 23.5521 34.3188 23.1132 34.0653C22.6107 33.7826 22.0402 33.6433 21.464 33.6625ZM22.6902 36.6617C22.6979 36.9582 22.6322 37.2519 22.499 37.5168C22.3802 37.7473 22.1942 37.9363 21.9657 38.059C21.7036 38.1881 21.4141 38.2514 21.122 38.2435H19.637V35.08H21.122C21.6155 35.08 22.0002 35.2158 22.2762 35.4873C22.5522 35.7618 22.6902 36.1532 22.6902 36.6617ZM26.0765 36.5898C26.6765 35.6147 27.2697 34.639 27.8562 33.6625H30.4212V39.5575H31.5238V40.993H30.4212V42.6603H28.754V40.993H24.3958V39.535C24.9253 38.545 25.4855 37.5625 26.0765 36.5875V36.5898ZM26.0112 39.5103V39.5552H28.754V35.008H28.6617C28.2087 35.7235 27.7535 36.4615 27.296 37.222C26.846 37.9825 26.4177 38.7453 26.0112 39.5103Z" fill="white"/>
</svg>
